<svg width="235" height="37" viewBox="0 0 235 37" fill="none" xmlns="http://www.w3.org/2000/svg">
<path d="M24.344 12.96C23.736 11.84 22.856 10.992 21.704 10.416C20.584 9.80801 19.256 9.50401 17.72 9.50401C15.064 9.50401 12.936 10.384 11.336 12.144C9.73598 13.872 8.93599 16.192 8.93599 19.104C8.93599 22.208 9.76799 24.64 11.432 26.4C13.128 28.128 15.448 28.992 18.392 28.992C20.408 28.992 22.104 28.48 23.48 27.456C24.888 26.432 25.912 24.96 26.552 23.04H16.136V16.992H33.992V24.624C33.384 26.672 32.344 28.576 30.872 30.336C29.432 32.096 27.592 33.52 25.352 34.608C23.112 35.696 20.584 36.24 17.768 36.24C14.44 36.24 11.464 35.52 8.83998 34.08C6.24798 32.608 4.21598 30.576 2.74398 27.984C1.30398 25.392 0.583984 22.432 0.583984 19.104C0.583984 15.776 1.30398 12.816 2.74398 10.224C4.21598 7.60001 6.24798 5.56801 8.83998 4.12801C11.432 2.65601 14.392 1.92001 17.72 1.92001C21.752 1.92001 25.144 2.89601 27.896 4.84801C30.68 6.80001 32.52 9.50401 33.416 12.96H24.344Z" fill="#141414"/>
<path d="M36.9065 22.56C36.9065 19.808 37.4185 17.392 38.4425 15.312C39.4985 13.232 40.9225 11.632 42.7145 10.512C44.5065 9.39201 46.5065 8.83201 48.7145 8.83201C50.6025 8.83201 52.2505 9.21601 53.6585 9.98401C55.0985 10.752 56.2025 11.76 56.9705 13.008V9.21601H65.1785V36H56.9705V32.208C56.1705 33.456 55.0505 34.464 53.6105 35.232C52.2025 36 50.5545 36.384 48.6665 36.384C46.4905 36.384 44.5065 35.824 42.7145 34.704C40.9225 33.552 39.4985 31.936 38.4425 29.856C37.4185 27.744 36.9065 25.312 36.9065 22.56ZM56.9705 22.608C56.9705 20.56 56.3945 18.944 55.2425 17.76C54.1225 16.576 52.7465 15.984 51.1145 15.984C49.4825 15.984 48.0905 16.576 46.9385 17.76C45.8185 18.912 45.2585 20.512 45.2585 22.56C45.2585 24.608 45.8185 26.24 46.9385 27.456C48.0905 28.64 49.4825 29.232 51.1145 29.232C52.7465 29.232 54.1225 28.64 55.2425 27.456C56.3945 26.272 56.9705 24.656 56.9705 22.608Z" fill="#141414"/>
<path d="M79.3246 13.008C80.0926 11.76 81.1966 10.752 82.6366 9.98401C84.0766 9.21601 85.7246 8.83201 87.5806 8.83201C89.7886 8.83201 91.7886 9.39201 93.5806 10.512C95.3726 11.632 96.7806 13.232 97.8046 15.312C98.8606 17.392 99.3886 19.808 99.3886 22.56C99.3886 25.312 98.8606 27.744 97.8046 29.856C96.7806 31.936 95.3726 33.552 93.5806 34.704C91.7886 35.824 89.7886 36.384 87.5806 36.384C85.6926 36.384 84.0446 36.016 82.6366 35.28C81.2286 34.512 80.1246 33.504 79.3246 32.256V36H71.1166V0.480011H79.3246V13.008ZM91.0366 22.56C91.0366 20.512 90.4606 18.912 89.3086 17.76C88.1886 16.576 86.7966 15.984 85.1326 15.984C83.5006 15.984 82.1086 16.576 80.9566 17.76C79.8366 18.944 79.2766 20.56 79.2766 22.608C79.2766 24.656 79.8366 26.272 80.9566 27.456C82.1086 28.64 83.5006 29.232 85.1326 29.232C86.7646 29.232 88.1566 28.64 89.3086 27.456C90.4606 26.24 91.0366 24.608 91.0366 22.56Z" fill="#141414"/>
<path d="M127.935 2.30401V8.88001H119.007V36H110.799V8.88001H101.871V2.30401H127.935Z" fill="#141414"/>
<path d="M157.302 22.176C157.302 22.944 157.254 23.744 157.158 24.576H138.582C138.71 26.24 139.238 27.52 140.166 28.416C141.126 29.28 142.294 29.712 143.67 29.712C145.718 29.712 147.142 28.848 147.942 27.12H156.678C156.23 28.88 155.414 30.464 154.23 31.872C153.078 33.28 151.622 34.384 149.862 35.184C148.102 35.984 146.134 36.384 143.958 36.384C141.334 36.384 138.998 35.824 136.95 34.704C134.902 33.584 133.302 31.984 132.15 29.904C130.998 27.824 130.422 25.392 130.422 22.608C130.422 19.824 130.982 17.392 132.102 15.312C133.254 13.232 134.854 11.632 136.902 10.512C138.95 9.39201 141.302 8.83201 143.958 8.83201C146.55 8.83201 148.854 9.37601 150.87 10.464C152.886 11.552 154.454 13.104 155.574 15.12C156.726 17.136 157.302 19.488 157.302 22.176ZM148.902 20.016C148.902 18.608 148.422 17.488 147.462 16.656C146.502 15.824 145.302 15.408 143.862 15.408C142.486 15.408 141.318 15.808 140.358 16.608C139.43 17.408 138.854 18.544 138.63 20.016H148.902Z" fill="#141414"/>
<path d="M160 22.608C160 19.824 160.56 17.392 161.68 15.312C162.832 13.232 164.416 11.632 166.432 10.512C168.48 9.39201 170.816 8.83201 173.44 8.83201C176.8 8.83201 179.6 9.71201 181.84 11.472C184.112 13.232 185.6 15.712 186.304 18.912H177.568C176.832 16.864 175.408 15.84 173.296 15.84C171.792 15.84 170.592 16.432 169.696 17.616C168.8 18.768 168.352 20.432 168.352 22.608C168.352 24.784 168.8 26.464 169.696 27.648C170.592 28.8 171.792 29.376 173.296 29.376C175.408 29.376 176.832 28.352 177.568 26.304H186.304C185.6 29.44 184.112 31.904 181.84 33.696C179.568 35.488 176.768 36.384 173.44 36.384C170.816 36.384 168.48 35.824 166.432 34.704C164.416 33.584 162.832 31.984 161.68 29.904C160.56 27.824 160 25.392 160 22.608Z" fill="#141414"/>
<path d="M207.159 8.92801C210.231 8.92801 212.695 9.95201 214.551 12C216.407 14.016 217.335 16.8 217.335 20.352V36H209.175V21.456C209.175 19.664 208.711 18.272 207.783 17.28C206.855 16.288 205.607 15.792 204.039 15.792C202.471 15.792 201.223 16.288 200.295 17.28C199.367 18.272 198.903 19.664 198.903 21.456V36H190.695V0.480011H198.903V12.816C199.735 11.632 200.871 10.688 202.311 9.98401C203.751 9.28001 205.367 8.92801 207.159 8.92801Z" fill="#141414"/>
<path d="M221.358 8.59201V0.960011H234.654V36H226.11V8.59201H221.358Z" fill="#141414"/>
</svg>
